<svg xmlns="http://www.w3.org/2000/svg" viewBox="0 0 415.38 359.4"><title>資產 15</title><g id="a2437e9d-c873-4a21-b76a-8fc9717deef2" data-name="圖層 2"><g id="a34883dd-ab3b-45bb-b965-c9eccd1c6e17" data-name="圖層 1"><path d="M415.38,359.4H0c.3-.5.53-.94.81-1.36,1-1.47,2-2.92,2.92-4.4.35-.56.54-1.22.87-1.79,1-1.62,1.4-3.48,2.69-5a23.92,23.92,0,0,0,2.47-3.76c.83-1.47,1.56-3,2.32-4.52.52-1.05.95-2.15,1.54-3.15s1.27-1.67,1.83-2.55.8-1.54,1.2-2.31c.27-.52.57-1,.84-1.53.71-1.33,1.4-2.68,2.14-4,.23-.4.64-.68.86-1.07,1-1.74,1.82-3.59,3-5.22.95-1.37,1.29-3.13,2.77-4.19.45-.33.57-1.1.88-1.64a42.55,42.55,0,0,0,2.83-5,18.38,18.38,0,0,1,1.57-3.06c1.25-2,2.54-4,3.72-6,.65-1.14,1-2.43,1.66-3.6a15.64,15.64,0,0,1,1.24-1.5A19.62,19.62,0,0,0,39.17,292c.94-1.67,1.91-3.33,2.8-5,.59-1.11,1-2.31,1.62-3.39.54-.92,1.31-1.7,1.92-2.58.41-.6.74-1.27,1.09-1.91.63-1.15,1.26-2.31,1.88-3.47.37-.69.69-1.41,1.07-2.09s.85-1.45,1.28-2.18c.62-1,1.25-2.08,1.85-3.13s1.09-2,1.64-3c.41-.74.83-1.48,1.27-2.2.55-.91,1.14-1.8,1.71-2.71.44-.69.88-1.39,1.31-2.09.68-1.14,1.37-2.28,2-3.43.3-.54.5-1.14.82-1.67,1-1.67,2.11-3.3,3.07-5,.86-1.52,1.52-3.14,2.37-4.66.58-1,1.34-2,2-3,.35-.53.68-1.1,1-1.66s.52-1.13.79-1.69c.48-1,.91-1.94,1.47-2.84s1.39-1.87,2.05-2.82a4.72,4.72,0,0,0,.93-1.73,4.22,4.22,0,0,1,1.24-2,10.27,10.27,0,0,0,.94-1.73c.73-1.4,1.4-2.84,2.19-4.21.94-1.65,2-3.22,3-4.88,1.09-2,2-4,3.13-6,.82-1.41,1.85-2.7,2.74-4.07.38-.58.63-1.24,1-1.84.7-1.2,1.44-2.37,2.13-3.57s1.19-2.17,1.78-3.26c1.22-2.24,2.41-4.49,3.66-6.71.49-.86,1.14-1.64,1.68-2.48s.9-1.43,1.3-2.17c.55-1,1-2.06,1.58-3.06.66-1.2,1.38-2.37,2.08-3.55.34-.58.7-1.15,1-1.74l2.09-3.63q1.29-2.26,2.59-4.52c.67-1.19,1.33-2.38,2-3.55.44-.73,1-1.41,1.39-2.14s.93-1.57,1.35-2.38a13,13,0,0,1,2.28-3.59c.8-.79,1.08-2.1,1.64-3.15,1.21-2.27,2.33-4.6,3.7-6.78,1.71-2.71,3-5.64,4.7-8.36s3.22-5.61,4.89-8.38c1.47-2.42,3.08-4.76,4.56-7.18.77-1.27,1.34-2.65,2.09-3.93s1.76-2.68,2.56-4.07c1-1.81,1.92-3.7,3-5.5,1.15-2,2.44-3.89,3.62-5.86.6-1,1-2.15,1.63-3.18,1.44-2.47,3-4.88,4.4-7.36.84-1.46,1.52-3,2.36-4.5s1.9-3,2.82-4.53c.81-1.34,1.56-2.73,2.36-4.07,1-1.65,2-3.26,3-4.92.83-1.46,1.55-3,2.34-4.45,1-1.87,2-3.73,3.07-5.57q2.55-4.46,5.17-8.87c1.17-2,2.43-3.87,3.59-5.84,1.07-1.82,2-3.7,3.07-5.52,1.39-2.43,2.84-4.81,4.23-7.23,1.18-2,2.3-4.11,3.49-6.14,1.91-3.26,3.9-6.47,5.79-9.74S198,17,199.84,13.67q2.52-4.44,5.1-8.85c.9-1.54,1.86-3,2.95-4.82.55,1.08,1,2,1.51,3s1.06,1.89,1.61,2.83,1.05,1.72,1.55,2.58,1,1.76,1.51,2.63c.66,1.09,1.32,2.18,2,3.25.51.77.85,1.61,1.45,2.37A31.11,31.11,0,0,1,220,21.09c.51.95,1.09,1.85,1.61,2.78s.81,1.68,1.28,2.49,1.12,1.71,1.66,2.58c.9,1.48,1.78,3,2.67,4.46s1.87,3.06,2.73,4.64c1.2,2.18,2.27,4.44,3.51,6.6,1.07,1.85,2.33,3.58,3.46,5.39.63,1,1.07,2.15,1.75,3.14,1,1.56,1.52,3.41,2.79,4.9,1.1,1.28,1.67,3,2.52,4.51s1.61,2.75,2.41,4.13,1.45,2.61,2.2,3.9c.52.9,1.1,1.76,1.63,2.65.63,1.06,1.24,2.13,1.85,3.19s1.3,2.29,2,3.42,1.25,2.07,1.86,3.12,1.21,2.08,1.79,3.14c.42.79.72,1.63,1.18,2.39.58,1,1.29,1.88,1.89,2.84.43.68.77,1.42,1.16,2.12.58,1,1.18,2.09,1.75,3.15.42.77.75,1.58,1.18,2.35s.84,1.24,1.22,1.89c.68,1.19,1.29,2.41,2,3.58.55.94,1.21,1.82,1.8,2.74.3.46.57.94.83,1.42.87,1.62,1.7,3.27,2.61,4.86.52.91,1.21,1.72,1.76,2.61.38.62.63,1.33,1,2s1,1.34,1.4,2,.64,1.11,1,1.67c.94,1.66,1.9,3.31,2.8,5a21.93,21.93,0,0,1,.92,2.24c.07.18.15.51.23.51,1.31,0,1.45,1.2,1.91,2,2.66,4.5,5.27,9,7.89,13.56a2.44,2.44,0,0,1,.45,1.09c0,1.56,1.19,2.53,1.74,3.8.4.94,1.21,1.55,1.56,2.59a22.4,22.4,0,0,0,2.36,4,10.39,10.39,0,0,1,1.05,1.78,10.4,10.4,0,0,0,2.27,3.67,14.2,14.2,0,0,1,1.62,3.07c.54,1,1.15,1.94,1.71,2.92.38.64.74,1.29,1.07,2a7.2,7.2,0,0,0,1.58,2.54,9.66,9.66,0,0,1,1.6,2.8c.57,1.06,1.12,2.13,1.69,3.19.41.77.81,1.55,1.26,2.3.59,1,1.24,2,1.83,3,.45.75.88,1.52,1.29,2.29.53,1,1,2,1.56,2.93.37.66.81,1.28,1.23,1.91s.93,1.25,1.36,1.9a17.93,17.93,0,0,1,1,1.71c.79,1.51,1.57,3,2.34,4.56.5,1,1,2,1.5,2.92.2.36.65.57.85.93,1,1.74,1.91,3.54,2.93,5.27.91,1.55,2,3,2.89,4.57.63,1.07,1.08,2.25,1.69,3.34s1.25,2,1.83,3c.39.67.65,1.41,1,2.1.19.37.47.7.69,1.07,1.05,1.74,2.11,3.48,3.11,5.25s1.67,3.87,3,5.33,1.56,3.14,2.76,4.51,1.57,3.15,2.44,4.69c.62,1.11,1.52,2.06,2.18,3.16s1,2.22,1.64,3.3c.78,1.41,1.64,2.79,2.48,4.18.07.12.25.21.27.33.24,1.43,1.46,2.28,2,3.52s1.28,2.48,1.93,3.71c.51.95,1,1.91,1.58,2.84.72,1.18,1.5,2.32,2.24,3.49.91,1.44,1.87,2.85,2.7,4.33.64,1.15,1.08,2.42,1.68,3.6.18.36.67.57.87.93.54,1,1,2.1,1.53,3.11s1.15,1.8,1.68,2.72c.44.77.75,1.61,1.2,2.37.59,1,1.27,1.91,1.89,2.87.4.6.79,1.2,1.15,1.82.68,1.17,1.36,2.33,2,3.52.35.65.59,1.35.92,2a12.8,12.8,0,0,0,.69,1.11c1.23,1.95,2.48,3.89,3.68,5.86.36.59.55,1.28.86,1.91a8.79,8.79,0,0,0,2.22,3.32,2.84,2.84,0,0,1,.87,1.63c.23,1.44,1.35,2.34,2,3.53a11.59,11.59,0,0,1,.91,1.79,10.32,10.32,0,0,0,2.23,3.59,15.36,15.36,0,0,1,1.66,2.91c.79,1.47,1.58,2.95,2.38,4.42.34.62.71,1.22,1.06,1.83.87,1.54,1.76,3.07,2.61,4.61,1,1.78,1.85,3.61,2.9,5.35,1.16,1.92,2.53,3.72,3.66,5.66.9,1.55,1.52,3.26,2.37,4.85.46.86,1.16,1.6,1.71,2.42.45.66.84,1.35,1.26,2,.67,1.11,1.37,2.2,2,3.33.36.64.55,1.37.9,2C414,357.08,414.66,358.19,415.38,359.4ZM90.88,240.6c-.25.07-.65.06-.73.22-.55,1-1,2.12-1.55,3.15-.35.65-.85,1.23-1.25,1.86-.61,1-1.2,1.94-1.78,2.92-.44.75-.85,1.53-1.29,2.29s-1.07,1.78-1.57,2.69-.83,1.74-1.32,2.57-1.27,1.8-1.82,2.76-1.07,2.22-1.65,3.3-1.34,2.27-2,3.43a16.85,16.85,0,0,1-1.67,3.15,10.14,10.14,0,0,0-2.22,3.53c-.21.65-.69,1.21-.93,1.86-.48,1.27-1.84,2-2,3.49a2.5,2.5,0,0,1-.93,1.69c-1.19.77-1.48,2.06-2.12,3.14-.37.63-.51,1.4-.85,2-.66,1.22-1.4,2.39-2.09,3.59-.33.57-.55,1.21-.93,1.74a29.33,29.33,0,0,0-2,2.62c-.87,1.54-1.53,3.19-2.32,4.78A9.72,9.72,0,0,1,56.77,299a9.52,9.52,0,0,0-2,3.43,7.36,7.36,0,0,1-1.09,1.85c-.56.93-1.15,1.84-1.69,2.78-.89,1.55-1.76,3.12-2.65,4.68-.63,1.09-1.31,2.14-1.92,3.24s-1.07,2.25-1.71,3.32c-.89,1.48-1.93,2.87-2.82,4.35-1,1.69-2,3.42-2.87,5.17a27.78,27.78,0,0,1-2.33,3.87,33.18,33.18,0,0,0-2.34,4.42c-.39.72-.88,1.39-1.27,2.1-.61,1.1-1.17,2.22-1.82,3.43h90.83V233.17c-1.57-.5-2.57.45-3.67,1.14s-2.2,1.33-3.28,2-2.06,1.4-3.13,2c-1.69,1-3.42,1.92-5.11,2.92-.32.19-.44.7-.75.87-1.1.58-2.28,1-3.35,1.62-1.48.85-2.86,1.86-4.32,2.76-.58.37-1.62.47-1.8.93-.41,1.13-1.7.51-1.89,1.27-.62-1.07-1.19-2.13-1.83-3.14-.75-1.19-1.6-2.31-2.36-3.49a12.19,12.19,0,0,1-.73-1.55,21.24,21.24,0,0,0,2.28-1c1-.6,2-1.33,3-1.94s2-1,3-1.61,1.69-1.52,2.64-2.12c1.67-1,3.44-1.93,5.13-2.94,1.25-.73,2.44-1.56,3.66-2.34s2.36-1.45,3.53-2.2c.52-.33,1-.7,1.45-1-1.31-.94-2.41-1.79-3.57-2.55-1-.63-2-1.15-3-1.74s-2-1.24-3-1.79-1.69-1.46-3-1a4,4,0,0,1-.28,1.14,27.65,27.65,0,0,0-2.56,4,17.65,17.65,0,0,1-2.59,4.58,5.71,5.71,0,0,0-.69,1.09,10.88,10.88,0,0,1-1,2.22,21.07,21.07,0,0,0-2.73,4.82,10.1,10.1,0,0,1-1,1.46C91.5,238.59,90.56,239.33,90.88,240.6Zm41.22-25.5a3,3,0,0,0,1-.11c1.43-.87,2.83-1.79,4.25-2.69.64-.4,1.28-.77,1.92-1.16l1.86-1.15,4-2.37c.74-.45,1.49-.87,2.2-1.36s1.51-1.2,2.34-1.67c1.06-.61,2.24-1,3.3-1.61,1.49-.87,2.92-1.84,4.35-2.8.32-.21.5-.63.82-.82.79-.48,1.63-.87,2.44-1.32s1.87-1.09,2.81-1.64c1.31-.75,2.63-1.48,3.93-2.27.39-.24.67-.66,1.06-.92.73-.49,1.51-.93,2.26-1.37l2.47-1.45c1.13-.65,2.28-1.27,3.38-2,.88-.56,1.67-1.29,2.57-1.82s2.21-1,3.27-1.63,2.28-1.4,3.42-2.1c.62-.39,1.26-.74,1.87-1.15.92-.62,1.79-1.33,2.74-1.89s2.2-1.08,3.26-1.68,2.16-1.32,3.2-2A3.87,3.87,0,0,0,198,175c.13-.21-.07-.8-.3-1a7.79,7.79,0,0,0-1.42-.8c-1.76-1-3.53-2-5.29-3a1.73,1.73,0,0,1-.84-2.35,14.06,14.06,0,0,0,1.83-2.67,9.06,9.06,0,0,1,2.78-4c.47.24.89.42,1.3.65.89.51,2.05.84,2.58,1.6.79,1.15,2.11,1.27,3,2.09a13.37,13.37,0,0,0,3.08,1.82,11.56,11.56,0,0,0,3.08,1.17c.57.09,1.26-.44,1.87-.74,1.56-.77,3.16-1.47,4.63-2.38,1.72-1.07,3.29-2.37,5-3.5a8.89,8.89,0,0,1,1.73-.72c1.66,2.61,3.28,5.15,4.95,7.79-.66.44-1.26.88-1.88,1.26-.81.5-1.65.94-2.46,1.43-.34.2-.64.47-1,.69l-3.53,2.31a12,12,0,0,0,1.54,1.42c1.19.78,2.42,1.51,3.67,2.21,1.78,1,3.59,1.95,5.37,3,.34.19.52.67.86.88,1.09.66,2.22,1.25,3.32,1.89.92.55,1.82,1.14,2.73,1.71,1.55.95,3.11,1.9,4.67,2.83,1,.6,2.07,1.16,3.08,1.77s2,1.28,3,1.92,1.89,1.29,2.88,1.87,2,1.07,3,1.64c1.15.65,2.26,1.36,3.4,2,.86.51,1.74,1,2.58,1.53.35.22.57.65.92.86.95.55,2,1,2.93,1.57,1.11.65,2.18,1.36,3.28,2.05.73.45,1.48.88,2.19,1.36s1.42,1.17,2.21,1.62c1.07.61,2.27,1,3.34,1.63,1.51.88,3,1.84,4.42,2.81.3.19.42.64.72.82,1.56.93,3.16,1.79,4.71,2.73.52.32.8.38.83-.31,0-.88,0-1.75,0-2.63,0-13.72-.08-27.44,0-41.16a14.16,14.16,0,0,0-1.69-6.24,37.45,37.45,0,0,0-2.1-3.7c-.39-.65-.85-1.24-1.26-1.86s-.7-1.07-1-1.62c-.43-.72-.87-1.44-1.27-2.19-.58-1.11-1.1-2.26-1.7-3.37-.35-.66-.79-1.28-1.21-1.91a15.07,15.07,0,0,1-1.75-2.61,18.93,18.93,0,0,0-2.12-3.71,34.73,34.73,0,0,1-2.34-4.64,5.39,5.39,0,0,0-.95-1.7,11.53,11.53,0,0,1-2.1-3.19c-.44-.74-.91-1.46-1.32-2.21-.57-1.08-1.07-2.2-1.63-3.28a16.57,16.57,0,0,0-1.07-1.88,15.45,15.45,0,0,1-1.22-1.48c-.61-1.17-1-2.43-1.65-3.6s-1.41-2.37-2.1-3.56c-.35-.61-.55-1.31-.95-1.88-.63-.92-1.47-1.71-2-2.67s-1-2.35-1.65-3.45c-.92-1.59-2-3.1-3-4.67-.75-1.22-1.44-2.48-2.13-3.74-1-1.77-1.92-3.57-2.91-5.33-.2-.35-.69-.54-.88-.89-.78-1.48-1.48-3-2.26-4.5-.93-1.74-1.9-3.46-2.89-5.18-.22-.38-.66-.65-.87-1-.36-.64-.56-1.37-.93-2a28.61,28.61,0,0,1-2.62-4.34c-.64-1.75-2.27-2.89-2.63-4.76a5.68,5.68,0,0,0-.86-1.55c-.87-1.49-1.76-3-2.62-4.48a14.5,14.5,0,0,0-1.64-2.92,13.27,13.27,0,0,1-2.25-3.74,17.33,17.33,0,0,0-1.59-2.94,5.15,5.15,0,0,1-1.32-2.37,2.66,2.66,0,0,0-.9-1.6c-1.08-.84-1.45-2.09-2.15-3.15-.47-.71-.84-1.49-1.26-2.23q-1.15-2-2.3-4c-.49-.87-1-1.76-1.45-2.63-.69-1.2-1.4-2.38-2.1-3.57l.25-.21-1.15-.22c-.34.84-.61,1.6-1,2.33a10.84,10.84,0,0,1-.95,1.47c-.44.62-.95,1.18-1.36,1.81s-.87,1.48-1.27,2.24c-.56,1.06-1.09,2.14-1.63,3.21-.33.65-.59,1.34-1,1.95-.89,1.36-1.93,2.63-2.74,4s-1.49,3.18-2.38,4.69-2,2.83-2.9,4.32c-1,1.72-1.92,3.52-2.89,5.28-.86,1.56-1.74,3.1-2.59,4.65-.29.51-.52,1-.81,1.56-.66,1.16-1.34,2.3-2,3.45-.42.71-.84,1.41-1.29,2.11-.56.87-1.19,1.71-1.71,2.6-.67,1.15-1.27,2.34-1.9,3.52s-1.19,2.19-1.76,3.3-1,2.06-1.55,3.09c0,.06-.13.08-.17.14a24.46,24.46,0,0,0-2,2.76c-.65,1.18-.92,2.61-1.69,3.69-1.19,1.68-2.11,3.5-3.13,5.26a20.68,20.68,0,0,0-2.1,3.66,8.47,8.47,0,0,1-.93,1.76c-.91,1.42-1.91,2.77-2.78,4.21-.58,1-1,2-1.53,3-.36.65-.87,1.22-1.23,1.88-.58,1-1.08,2.14-1.61,3.21-.09.17-.1.43-.23.51-1.12.65-1.38,1.92-2.08,2.87-.46.64-.51,1.57-.92,2.26-.81,1.36-1.77,2.64-2.63,4-.39.61-.73,1.27-1.07,1.91-.55,1-1.06,2.13-1.64,3.17s-1.31,2.27-2,3.4c-.39.65-.76,1.31-1.17,1.94-.62.94-1.35,1.82-1.88,2.8-.64,1.19-.92,2.61-1.71,3.68a12,12,0,0,0-2.08,3.65,7.25,7.25,0,0,1-1,1.71c-.41.61-.89,1.18-1.26,1.82s-.61,1.36-1,2c-.81,1.38-1.69,2.73-2.54,4.1-.74,1.19-1.54,2.35-2.2,3.59a6.15,6.15,0,0,0-.91,2.6c0,13.76,0,27.52,0,41.28ZM282.79,341.76V236a8.56,8.56,0,0,0-1.37.49c-1,.6-2.05,1.28-3.09,1.88s-2,1-2.92,1.61-1.62,1.54-2.56,2.08a35.15,35.15,0,0,0-3.82,2.13,49.83,49.83,0,0,1-5.28,3c-.41.24-.69.74-1.11.9-1.54.61-2.76,1.73-4.3,2.4a49.41,49.41,0,0,0-6,3.72c-.52.32-1.06.62-1.57,1a18.4,18.4,0,0,1-2.55,1.8A16.87,16.87,0,0,0,243,260.2a4.53,4.53,0,0,1-1.11.7c-1.07.58-2.16,1.14-3.23,1.74s-2.26,1.31-3.4,1.95c-.58.32-1.56.46-1.71.91-.48,1.34-1.8,1.46-2.69,2.08-1.72,1.2-3.7,2-5.51,3.1-1.54.92-3,2-4.49,3-1.32.85-2.68,1.65-4,2.45l3.57,2.19,1.56,1c.64.39,1.29.77,1.94,1.15a9.81,9.81,0,0,1,1.69,1c.17.16.07.77-.07,1.09-.3.67-.73,1.28-1.08,1.92s-.51,1.44-1,1.8a3.57,3.57,0,0,0-1.48,2,1.45,1.45,0,0,1-2,.95c-.64-.43-1.24-.91-1.9-1.28-1.84-1-3.74-2-5.54-3.05-1.42-.87-2.7-1.95-4.08-2.86-.29-.19-1-.25-1.13-.07-.93,1.09-2.42,1.19-3.5,2.17-1.48,1.32-3.47,2.06-5.23,3.07-.68.39-1.31.89-2,1.27s-1.49,1.45-2.55.62a5.86,5.86,0,0,1-1.23-1.35c-.77-1.2-1.48-2.43-2.18-3.67a5.17,5.17,0,0,1-.69-1.54,1.64,1.64,0,0,1,.3-1.25,5.35,5.35,0,0,1,1.37-.84c1.27-.72,2.56-1.43,3.81-2.18.35-.21.56-.64.91-.87.58-.38,1.22-.69,2.16-1.21-1.26-.72-2.2-1.24-3.11-1.81a17.86,17.86,0,0,0-2.85-1.83c-1-.38-1.46-1.31-2.29-1.8-1.77-1-3.6-2-5.37-3s-3.27-2.08-4.93-3.07c-1.34-.81-2.72-1.53-4.08-2.3-.6-.34-1.19-.7-1.77-1.07-1.08-.68-2.12-1.39-3.2-2.06-.91-.56-1.87-1-2.76-1.61s-1.74-1.25-2.63-1.82c-1.61-1-3.24-2-4.87-3-.9-.55-1.81-1.08-2.73-1.61-1.09-.62-2.21-1.18-3.27-1.85s-1.84-1.36-2.8-2-2.19-1.22-3.25-1.87a11.75,11.75,0,0,0-2.58-1.66c-1.87-.51-3-2.11-4.75-2.81a21.59,21.59,0,0,1-3-1.83c-1-.65-2.07-1.34-3.16-1.9-.91-.48-1.9-.81-3-1.27V341.76Zm100.65,0c-.83-1.46-1.53-2.72-2.26-4s-1.37-2.35-2.08-3.51c-.56-.93-1.19-1.84-1.72-2.79-.39-.71-.62-1.51-1-2.21a18.24,18.24,0,0,1-1.76-2.81c-.61-1.75-1.87-3.07-2.68-4.68s-1.79-2.89-2.62-4.37-1.5-3-2.28-4.43c-.26-.48-.67-.89-1-1.36-.55-.9-1.07-1.81-1.61-2.72-.16-.28-.37-.53-.52-.81-.41-.75-.8-1.51-1.22-2.25-.52-.93-1.07-1.85-1.61-2.77l-1.47-2.49c-.57-1-1.17-2-1.7-3-.35-.68-.42-1.64-.95-2.1-1.31-1.14-1.59-2.87-2.75-4.13-1.3-1.42-2-3.39-3-5.12-.73-1.34-1.43-2.7-2.19-4-.2-.34-.66-.53-.83-.87-.59-1.21-1.1-2.47-1.66-3.7a11.5,11.5,0,0,0-.85-1.68c-.59-.9-1.32-1.72-1.87-2.65-.93-1.56-1.73-3.21-2.63-4.79s-1.81-2.9-2.66-4.39-1.73-3.22-2.6-4.83c-.24-.45-.48-.91-.74-1.35-.69-1.12-1.41-2.22-2.06-3.35-.35-.6-.51-1.31-.87-1.9-.72-1.17-1.54-2.27-2.26-3.43-.36-.59-.53-1.29-.89-1.88-.57-.91-1.29-1.74-1.83-2.67-1.16-2-2.26-4.08-3.38-6.12-.27-.48-.39-1.12-.77-1.44-1.42-1.16-1.77-2.95-2.56-4.42-.62-1.16-1.67-2-2.08-3.38-.49-1.67-1.73-3.11-2.64-4.66l-1.26-2.13c-.63-1.09-1.3-2.16-1.88-3.28s-1.06-1.23-2.21-.43c-.82.56-1.7,1-2.55,1.52-1.11.64-2.25,1.24-3.32,1.94-.88.56-1.67,1.27-2.55,1.85-.51.33-1.14.48-1.66.81a1,1,0,0,0-.31.81c0,.22.34.45.57.56s.59,0,.81.15q2.24,1.36,4.41,2.81c.36.24.6.67,1,.89.74.46,1.53.81,2.28,1.25s1.72,1.14,2.62,1.64,2.15,1,3.21,1.57a9.93,9.93,0,0,1,1.5.9,32.72,32.72,0,0,0,2.65,2.08,26.84,26.84,0,0,1,4.53,2.8,1.18,1.18,0,0,1,.23,1.65c-.81,1.41-1.82,2.71-2.7,4.08a15.27,15.27,0,0,0-.78,1.8c-.37.84-2.12.68-2.92-.17a8.28,8.28,0,0,0-1.62-1.26c-1-.66-2.12-1.27-3.18-1.92-.83-.51-1.63-1.08-2.47-1.58-1.12-.67-2.27-1.28-3.4-1.92-.47-.26-.94-.54-1.4-.83l-3-1.93c-1.05-.67-2.1-1.31-3.15-2-.9-.59-1.77-1.23-2.7-1.78-1.2-.71-2.44-1.35-3.78-2.1V341.75ZM186.1,225.32H186c0,.32,0,.64,0,1a16.4,16.4,0,0,0,.8,5.73c0,.11,0,.3.1.33,1.26.51.76,1.94,1.5,2.79s1.15,2.25,1.94,3.2c.95,1.16,2.2,2.14,3.18,3.2a15.45,15.45,0,0,0,3.4,2.73,21.34,21.34,0,0,0,5.43,2.17,25.25,25.25,0,0,0,5.42.72,14,14,0,0,0,2.94-.55,13,13,0,0,0,3.61-.65,42.15,42.15,0,0,0,5.34-2.34,21.3,21.3,0,0,0,2.34-1.79,19,19,0,0,0,1.34-1.35c.6-.62,1.44-1.14,1.73-1.89.46-1.14,1.51-1.85,1.77-3.2s1.34-2.8,1.87-4.25c.36-1-.29-2.23.91-3,.11-.06.06-.38.06-.58,0-1.6,0-3.2,0-4.8,0-.27,0-.74-.15-.78-1.08-.32-.6-1.22-.76-1.88a19.89,19.89,0,0,0-.87-3.29,25.48,25.48,0,0,0-2-3.5,16.34,16.34,0,0,0-2-2.74,20,20,0,0,0-3.23-2.72,49.64,49.64,0,0,0-4.66-2.66,20.93,20.93,0,0,1-2.23-.81c-1.74-1.18-3.84-.19-5.67-1.14-.72-.37-2,.33-3,.51-1.62.29-3.25.51-4.86.86a3.53,3.53,0,0,0-2,.85c-.75,1-2,1.19-2.83,2.06-1,1-2.37,1.64-3.37,2.65a35.7,35.7,0,0,0-2.45,3.33,7.69,7.69,0,0,0-1.92,3.9c0,.19,0,.45-.15.55-1.12,1-1.15,2.39-1.39,3.64A20,20,0,0,0,186.1,225.32Zm-15.32-22,0-.31c-6,3.61-12.09,7.18-18.08,10.85s-12.12,7.56-18.38,11.47c1.24.87,2.3,1.69,3.45,2.4,1.54,1,3.16,1.81,4.72,2.76,1.74,1.05,3.44,2.16,5.17,3.23,1.58,1,3.18,1.91,4.75,2.91,1.16.73,2.21,1.64,3.41,2.29,1.75,1,3.6,1.63,5.1,3.11,1,1,2.61,1.52,3.94,2.27s2.65,1.54,4,2.3c.5.27,1,.5,1.54.74l.34-.42c-.71-1.32-1.45-2.63-2.11-4a23.14,23.14,0,0,1-1.19-2.87,20.92,20.92,0,0,0-.86-3,13.13,13.13,0,0,1-1.2-5.71c-.13-5-.87-10,.53-14.88.44-1.54.55-3.17.89-4.75a10.44,10.44,0,0,1,.78-2c.4-.87.81-1.74,1.26-2.58.26-.49.66-.9.9-1.39C170.09,205,170.42,204.18,170.78,203.36Zm74.79.31-.29.32c.32.95.62,1.9,1,2.84.19.5.34,1.31.69,1.42,1.36.42,1,1.78,1.4,2.61a21.87,21.87,0,0,1,1.55,5.33,26.58,26.58,0,0,1,.69,4.24,63.61,63.61,0,0,1-.72,14.19,24.36,24.36,0,0,1-.72,3,4.82,4.82,0,0,1-.86,2.2c-.91.82,0,2.33-1.39,3-.49.23-.53,1.37-.84,2.06a4.27,4.27,0,0,1-1,1.66c-.75.59-.28,1-.14,1.52a8,8,0,0,1,.93-.81c.86-.53,1.76-1,2.62-1.53.67-.41,1.3-.89,2-1.27,1-.59,2.37-.89,3.16-1.71a23.2,23.2,0,0,1,4.21-2.87c1.87-1.22,3.8-2.36,5.7-3.54.53-.32,1-.72,1.56-1,1.09-.6,2.22-1.13,3.31-1.75,1.49-.84,3-1.74,4.44-2.62.57-.34,1.14-.66,1.68-1,.89-.64,1.7-1.4,2.64-2,1.35-.84,2.77-1.55,4.33-2.41-1.31-.83-2.55-1-3.18-2.15-.18-.33-.7-.49-1.08-.69-.82-.43-1.66-.82-2.47-1.26-1.46-.8-2.89-1.63-4.33-2.46-.57-.33-1.12-.72-1.67-1.09-1-.67-1.95-1.37-3-2s-2.1-1.1-3.11-1.72-1.69-1.26-2.59-1.8c-1.11-.68-2.29-1.22-3.4-1.89-1.41-.86-2.77-1.8-4.15-2.69-1.58-1-3.14-2-4.74-3A22.74,22.74,0,0,0,245.57,203.67ZM123.05,185.15c-.62.39-1.21.56-1.43.95-.61,1.05-1,2.21-1.58,3.29-.33.63-.83,1.16-1.2,1.77-.54.89-1,1.8-1.53,2.72-.68,1.26-1.3,2.56-2,3.8-.58,1-1.31,1.95-1.87,3-.83,1.49-1.51,3.06-2.37,4.51-.6,1-1.46,1.84-2.11,2.82s-.15,2.13,1.09,2.61A8.57,8.57,0,0,1,111.9,212a17.2,17.2,0,0,0,1.45.95c.68.37,1.41.64,2.08,1,1,.58,1.93,1.26,2.93,1.84s2.33.9,3,1.74,1.05.64,1.73.56ZM292.8,218.4c.47-.25.84-.41,1.18-.62.61-.39,1.18-.85,1.8-1.22s1.37-.73,2-1.11q1.65-.93,3.27-1.89c.92-.54,1.84-1.07,2.73-1.66a13.2,13.2,0,0,1,1.8-1.35c1.28-.57,1.43-1,.59-2.24a24.06,24.06,0,0,1-1.47-2.5c-.76-1.4-1.47-2.83-2.22-4.25-.22-.41-.5-.79-.72-1.2-.45-.81-.84-1.65-1.3-2.44-.61-1.07-1.29-2.11-1.89-3.18-.38-.67-.62-1.41-1-2.06-.9-1.43-1.9-2.79-2.79-4.22-.65-1.07-1.19-2.2-1.78-3.31l-.22,0Zm-85.15,52,3.25-1.75c-.2-.11-.3-.21-.4-.21-1.76-.05-3.51-.09-5.26-.11-.14,0-.28.22-.42.33a3.44,3.44,0,0,0,.47.4Zm.16-88.15v0a3.46,3.46,0,0,0,.72,0c.5-.1,1-.24,1.5-.36l-1.08-.74-.19-.13a2,2,0,0,0-2.9.41c-.09.14.21.72.42.77A6.49,6.49,0,0,0,207.81,182.26Z"/></g></g></svg>